<svg width="15" height="15" viewBox="0 0 15 15" fill="none" xmlns="http://www.w3.org/2000/svg">
<g id="Left">
<path id="Vector" d="M11.0493 2.58276V1.28868C11.0493 1.17651 10.9204 1.11457 10.8334 1.18321L3.28651 7.07774C3.22238 7.12761 3.1705 7.19146 3.13481 7.26443C3.09912 7.3374 3.08057 7.41755 3.08057 7.49878C3.08057 7.58001 3.09912 7.66017 3.13481 7.73313C3.1705 7.8061 3.22238 7.86995 3.28651 7.91982L10.8334 13.8144C10.9221 13.883 11.0493 13.821 11.0493 13.7089V12.4148C11.0493 12.3328 11.0108 12.2541 10.9472 12.2039L4.92043 7.49962L10.9472 2.7937C11.0108 2.74348 11.0493 2.6648 11.0493 2.58276Z" fill="#8E85EB"/>
</g>
</svg>
