<svg width="15" height="15" viewBox="0 0 15 15" fill="none" xmlns="http://www.w3.org/2000/svg">
<g id="Right">
<path id="Vector" d="M11.7472 7.07852L4.20034 1.18399C4.18062 1.16846 4.15692 1.15881 4.13196 1.15615C4.107 1.15349 4.0818 1.15792 4.05925 1.16893C4.0367 1.17994 4.01771 1.1971 4.00446 1.21841C3.99122 1.23973 3.98426 1.26436 3.98438 1.28945V2.58354C3.98438 2.66557 4.02288 2.74425 4.0865 2.79448L10.1133 7.50039L4.0865 12.2063C4.02121 12.2565 3.98438 12.3352 3.98438 12.4172V13.7113C3.98438 13.8235 4.11328 13.8854 4.20034 13.8168L11.7472 7.92227C11.8114 7.87223 11.8632 7.80823 11.8989 7.73513C11.9346 7.66202 11.9532 7.58174 11.9532 7.50039C11.9532 7.41904 11.9346 7.33876 11.8989 7.26566C11.8632 7.19256 11.8114 7.12855 11.7472 7.07852Z" fill="#8E85EB"/>
</g>
</svg>
