<svg width="17" height="16" viewBox="0 0 17 16" fill="none" xmlns="http://www.w3.org/2000/svg">
<path d="M16 7.3125H2.65625L7.96875 1.90625C8.25 1.625 8.25 1.1875 7.96875 0.90625C7.6875 0.625 7.25 0.625 6.96875 0.90625L0.5 7.46875C0.21875 7.75 0.21875 8.1875 0.5 8.46875L6.96875 15.0312C7.09375 15.1562 7.28125 15.25 7.46875 15.25C7.65625 15.25 7.8125 15.1875 7.96875 15.0625C8.25 14.7812 8.25 14.3438 7.96875 14.0625L2.6875 8.71875H16C16.375 8.71875 16.6875 8.40625 16.6875 8.03125C16.6875 7.625 16.375 7.3125 16 7.3125Z" fill="#46A8E1"/>
</svg>
