<svg xmlns="http://www.w3.org/2000/svg" width="16" height="16" viewBox="0 0 16 16" fill="none" >
<path d="M15.3392 3.92143C15.0999 3.36721 14.7547 2.86498 14.3231 2.44286C13.8912 2.01947 13.382 1.68302 12.8231 1.45178C12.2436 1.21106 11.6221 1.08784 10.9946 1.08928C10.1142 1.08928 9.25529 1.33036 8.50886 1.78571C8.33029 1.89464 8.16065 2.01428 7.99993 2.14464C7.83922 2.01428 7.66957 1.89464 7.491 1.78571C6.74457 1.33036 5.88564 1.08928 5.00529 1.08928C4.37136 1.08928 3.75707 1.21071 3.17672 1.45178C2.616 1.68393 2.11064 2.01786 1.67672 2.44286C1.24457 2.8645 0.899355 3.36685 0.660645 3.92143C0.41243 4.49821 0.285645 5.11071 0.285645 5.74107C0.285645 6.33571 0.407073 6.95536 0.648145 7.58571C0.84993 8.1125 1.13922 8.65893 1.50886 9.21071C2.09457 10.0839 2.89993 10.9946 3.89993 11.9179C5.55707 13.4482 7.19814 14.5054 7.26779 14.5482L7.691 14.8196C7.8785 14.9393 8.11957 14.9393 8.30707 14.8196L8.73029 14.5482C8.79993 14.5036 10.4392 13.4482 12.0981 11.9179C13.0981 10.9946 13.9035 10.0839 14.4892 9.21071C14.8589 8.65893 15.1499 8.1125 15.3499 7.58571C15.591 6.95536 15.7124 6.33571 15.7124 5.74107C15.7142 5.11071 15.5874 4.49821 15.3392 3.92143ZM7.99993 13.4071C7.99993 13.4071 1.64279 9.33393 1.64279 5.74107C1.64279 3.92143 3.14814 2.44643 5.00529 2.44643C6.31064 2.44643 7.44279 3.175 7.99993 4.23928C8.55707 3.175 9.68922 2.44643 10.9946 2.44643C12.8517 2.44643 14.3571 3.92143 14.3571 5.74107C14.3571 9.33393 7.99993 13.4071 7.99993 13.4071Z" fill="#FFFFFF"/>
</svg>